<svg width="3165" height="975" xmlns="http://www.w3.org/2000/svg" xmlns:xlink="http://www.w3.org/1999/xlink" xml:space="preserve" overflow="hidden"><defs><clipPath id="clip0"><rect x="5171" y="490" width="3165" height="975"/></clipPath><clipPath id="clip1"><rect x="5172" y="490" width="3162" height="972"/></clipPath><clipPath id="clip2"><rect x="5172" y="490" width="3162" height="972"/></clipPath><clipPath id="clip3"><rect x="5172" y="490" width="3162" height="972"/></clipPath><clipPath id="clip4"><rect x="5172" y="490" width="3162" height="972"/></clipPath><clipPath id="clip5"><rect x="5421" y="660" width="2766" height="602"/></clipPath><clipPath id="clip6"><rect x="5172" y="490" width="3162" height="972"/></clipPath><clipPath id="clip7"><rect x="5172" y="490" width="3162" height="972"/></clipPath><clipPath id="clip8"><rect x="5172" y="490" width="3162" height="972"/></clipPath><clipPath id="clip9"><rect x="5172" y="490" width="3162" height="972"/></clipPath><clipPath id="clip10"><rect x="5172" y="490" width="3162" height="972"/></clipPath><clipPath id="clip11"><rect x="5172" y="490" width="3162" height="972"/></clipPath><clipPath id="clip12"><rect x="5172" y="490" width="3162" height="972"/></clipPath><clipPath id="clip13"><rect x="5172" y="490" width="3162" height="972"/></clipPath><clipPath id="clip14"><rect x="5172" y="490" width="3162" height="972"/></clipPath><clipPath id="clip15"><rect x="5172" y="490" width="3162" height="972"/></clipPath><clipPath id="clip16"><rect x="5172" y="490" width="3162" height="972"/></clipPath><clipPath id="clip17"><rect x="5172" y="490" width="3162" height="972"/></clipPath><clipPath id="clip18"><rect x="5172" y="490" width="3162" height="972"/></clipPath><clipPath id="clip19"><rect x="5172" y="490" width="3162" height="972"/></clipPath><clipPath id="clip20"><rect x="5172" y="490" width="3162" height="972"/></clipPath><clipPath id="clip21"><rect x="5172" y="490" width="3162" height="972"/></clipPath><clipPath id="clip22"><rect x="5172" y="490" width="3162" height="972"/></clipPath><clipPath id="clip23"><rect x="5172" y="490" width="3162" height="972"/></clipPath><clipPath id="clip24"><rect x="5172" y="490" width="3162" height="972"/></clipPath><clipPath id="clip25"><rect x="5172" y="490" width="3162" height="972"/></clipPath><clipPath id="clip26"><rect x="5172" y="490" width="3162" height="972"/></clipPath></defs><g clip-path="url(#clip0)" transform="translate(-5171 -490)"><rect x="5172" y="491" width="3162" height="972" fill="#FFFFFF"/><g clip-path="url(#clip1)"><path d="M5421.5 1199.54 8184.5 1199.54M5421.5 1139.54 8184.5 1139.54M5421.5 1079.54 8184.5 1079.54M5421.5 1019.53 8184.5 1019.53M5421.5 960.532 8184.5 960.532M5421.5 900.53 8184.5 900.53M5421.5 840.528 8184.5 840.528M5421.5 780.526 8184.5 780.526M5421.5 720.524 8184.5 720.524M5421.5 660.5 8184.5 660.5" stroke="#D9D9D9" stroke-width="3.4375" stroke-linejoin="round" stroke-miterlimit="10" fill="none"/></g><g clip-path="url(#clip2)"><path d="M5881.69 660.5 5881.69 1259.5M6341.71 660.5 6341.71 1259.5M6802.72 660.5 6802.72 1259.5M7262.74 660.5 7262.74 1259.5M7723.75 660.5 7723.75 1259.5M8184.5 660.5 8184.5 1259.5" stroke="#D9D9D9" stroke-width="3.4375" stroke-linejoin="round" stroke-miterlimit="10" fill="none"/></g><g clip-path="url(#clip3)"><path d="M0 0 0.000360892 599" stroke="#BFBFBF" stroke-width="3.4375" stroke-linejoin="round" stroke-miterlimit="10" fill="none" fill-rule="evenodd" transform="matrix(1 0 0 -1 5421.5 1259.5)"/></g><g clip-path="url(#clip4)"><path d="M5421.5 1259.5 8184.5 1259.5" stroke="#BFBFBF" stroke-width="3.4375" stroke-linejoin="round" stroke-miterlimit="10" fill="none" fill-rule="evenodd"/></g><g clip-path="url(#clip5)"><path d="M5421.5 1105.54 5424.68 1110.54 5428.68 1035.53 5432.68 1013.53 5436.68 1015.53 5440.68 757.525 5443.68 739.524 5447.68 730.524 5451.68 725.524 5455.68 709.5 5459.68 767.525 5463.68 772.526 5466.68 870.529 5470.68 893.529 5474.68 867.529 5478.68 883.529 5482.68 965.532 5486.68 973.532 5489.68 898.53 5493.68 948.531 5497.68 1103.54 5501.68 1104.54 5505.68 1120.54 5509.68 1122.54 5512.68 1102.54 5516.68 1085.54 5520.68 1091.54 5524.68 1023.53 5528.68 1051.53 5532.68 820.527 5535.68 916.53 5539.68 907.53 5543.68 878.529 5547.68 788.526 5551.68 832.527 5555.68 820.527 5559.68 852.528 5562.68 888.529 5566.68 980.532 5570.68 966.532 5574.68 956.532 5578.68 938.531 5582.68 995.533 5585.68 1011.53 5589.68 1123.54 5593.68 1122.54 5597.68 1131.54 5601.68 1120.54 5605.68 1130.54 5608.68 1131.54 5612.68 1113.54 5616.68 1128.54 5620.68 1090.54 5624.68 1099.54 5628.68 1031.53 5631.68 1075.54 5635.69 1025.53 5639.69 1063.54 5643.69 1100.54 5647.69 1011.53 5651.69 1074.54 5654.69 1083.54 5658.69 1064.54 5662.69 1105.54 5666.69 1045.53 5670.69 956.532 5674.69 964.532 5677.69 1083.54 5681.69 985.532 5685.69 971.532 5689.69 1085.54 5693.69 987.533 5697.69 964.532 5700.69 975.532 5704.69 968.532 5708.69 992.533 5712.69 916.53 5716.69 940.531 5720.69 824.527 5724.69 937.531 5727.69 876.529 5731.69 930.531 5735.69 971.532 5739.69 936.531 5743.69 989.533 5747.69 995.533 5750.69 1031.53 5754.69 1010.53 5758.69 1022.53 5762.69 1029.53 5766.69 1045.53 5770.69 1004.53 5773.69 1036.53 5777.69 979.532 5781.69 980.532 5785.69 980.532 5789.69 955.531 5793.69 966.532 5796.69 1024.53 5800.69 972.532 5804.69 959.532 5808.69 740.524 5812.69 742.525 5816.69 817.527 5819.69 724.524 5823.69 759.525 5827.69 784.526 5831.69 812.527 5835.69 901.53 5839.69 912.53 5842.69 956.532 5846.69 998.533 5850.69 958.532 5854.69 938.531 5858.69 931.531 5862.69 995.533 5866.69 1112.54 5869.69 1103.54 5873.69 1109.54 5877.69 1106.54 5881.69 1121.54 5885.69 1102.54 5889.69 1098.54 5892.69 1081.54 5896.69 1030.53 5900.69 827.527 5904.69 785.526 5908.69 833.528 5912.69 855.528 5915.69 783.526 5919.69 812.527 5923.69 828.527 5927.69 915.53 5931.69 930.531 5935.69 994.533 5938.69 940.531 5942.69 1009.53 5946.7 964.532 5950.7 1006.53 5954.7 968.532 5958.7 1126.54 5961.7 1129.54 5965.7 1120.54 5969.7 1128.54 5973.7 1116.54 5977.7 1119.54 5981.7 1102.54 5984.7 1092.54 5988.7 1077.54 5992.7 862.528 5996.7 906.53 6000.7 914.53 6004.7 787.526 6008.7 940.531 6011.7 886.529 6015.7 893.529 6019.7 927.531 6023.7 974.532 6027.7 996.533 6031.7 997.533 6034.7 954.531 6038.7 977.532 6042.7 1014.53 6046.7 1073.54 6050.7 1093.54 6054.7 1112.54 6057.7 1103.54 6061.7 1118.54 6065.7 1099.54 6069.7 1126.54 6073.7 1099.54 6077.7 1103.54 6080.7 1072.54 6084.7 878.529 6088.7 861.528 6092.7 825.527 6096.7 858.528 6100.7 808.527 6103.7 797.526 6107.7 808.527 6111.7 917.53 6115.7 905.53 6119.7 957.532 6123.7 964.532 6126.7 973.532 6130.7 958.532 6134.7 995.533 6138.7 1050.53 6142.7 1129.54 6146.7 1126.54 6149.7 1128.54 6153.7 1124.54 6157.7 1121.54 6161.7 1090.54 6165.7 1113.54 6169.7 1104.54 6173.7 1077.54 6176.7 857.528 6180.7 907.53 6184.7 853.528 6188.7 871.529 6192.7 846.528 6196.7 881.529 6199.7 940.531 6203.7 955.531 6207.7 950.531 6211.7 931.531 6215.7 1012.53 6219.7 1006.53 6222.7 1025.53 6226.7 1051.53 6230.7 1007.53 6234.7 1124.54 6238.7 1116.54 6242.71 1122.54 6245.71 1103.54 6249.71 1111.54 6253.71 1125.54 6257.71 1110.54 6261.71 1102.54 6265.71 1090.54 6268.71 1064.54 6272.71 1024.53 6276.71 1055.53 6280.71 1031.53 6284.71 984.532 6288.71 986.533 6291.71 1047.53 6295.71 998.533 6299.71 1034.53 6303.71 1058.53 6307.71 1022.53 6311.71 1097.54 6315.71 1025.53 6318.71 1065.54 6322.71 1035.53 6326.71 1003.53 6330.71 1043.53 6334.71 1109.54 6338.71 1087.54 6341.71 1033.53 6345.71 1002.53 6349.71 1046.53 6353.71 1061.54 6357.71 1054.53 6361.71 1102.54 6364.71 992.533 6368.71 1024.53 6372.71 1059.53 6376.71 1059.53 6380.71 1062.54 6384.71 1031.53 6387.71 1100.54 6391.71 1097.54 6395.71 1078.54 6399.71 1080.54 6403.71 1071.54 6407.71 1086.54 6410.71 1077.54 6414.71 1089.54 6418.71 1048.53 6422.71 1039.53 6426.71 1078.54 6430.71 1108.54 6433.71 954.531 6437.71 1100.54 6441.71 1094.54 6445.71 990.533 6449.71 1005.53 6453.71 819.527 6457.71 826.527 6460.71 810.527 6464.71 782.526 6468.71 772.526 6472.71 812.527 6476.71 822.527 6480.71 853.528 6483.71 868.529 6487.71 843.528 6491.71 864.529 6495.71 918.53 6499.71 851.528 6503.71 941.531 6506.71 953.531 6510.71 1118.54 6514.71 1119.54 6518.71 1133.54 6522.71 1114.54 6526.71 1126.54 6529.71 1110.54 6533.71 1118.54 6537.71 1109.54 6541.71 1073.54 6545.71 925.531 6549.71 918.53 6552.71 966.532 6556.72 900.53 6560.72 867.529 6564.72 877.529 6568.72 871.529 6572.72 896.53 6575.72 873.529 6579.72 937.531 6583.72 928.531 6587.72 916.53 6591.72 903.53 6595.72 1048.53 6598.72 1037.53 6602.72 1111.54 6606.72 1119.54 6610.72 1137.54 6614.72 1127.54 6618.72 1123.54 6622.72 1109.54 6625.72 1119.54 6629.72 1095.54 6633.72 1097.54 6637.72 902.53 6641.72 929.531 6645.72 913.53 6648.72 878.529 6652.72 868.529 6656.72 887.529 6660.72 930.531 6664.72 961.532 6668.72 952.531 6671.72 969.532 6675.72 961.532 6679.72 1006.53 6683.72 963.532 6687.72 966.532 6691.72 1039.53 6694.72 1109.54 6698.72 1135.54 6702.72 1112.54 6706.72 1127.54 6710.72 1128.54 6714.72 1113.54 6717.72 1123.54 6721.72 1072.54 6725.72 1073.54 6729.72 834.528 6733.72 825.527 6737.72 807.527 6740.72 885.529 6744.72 790.526 6748.72 793.526 6752.72 861.528 6756.72 870.529 6760.72 893.529 6764.72 925.531 6767.72 917.53 6771.72 972.532 6775.72 965.532 6779.72 1017.53 6783.72 1020.53 6787.72 1130.54 6790.72 1129.54 6794.72 1112.54 6798.72 1138.54 6802.72 1132.54 6806.72 1124.54 6810.72 1108.54 6813.72 1119.54 6817.72 1041.53 6821.72 909.53 6825.72 890.529 6829.72 893.529 6833.72 928.531 6836.72 891.529 6840.72 912.53 6844.72 922.53 6848.72 1010.53 6852.72 954.531 6856.73 969.532 6859.73 968.532 6863.73 991.533 6867.73 1034.53 6871.73 1069.54 6875.73 1100.54 6879.73 1146.54 6882.73 1124.54 6886.73 1142.54 6890.73 1133.54 6894.73 1116.54 6898.73 1126.54 6902.73 1113.54 6906.73 1075.54 6909.73 1101.54 6913.73 1054.53 6917.73 1019.53 6921.73 1066.54 6925.73 1039.53 6929.73 1036.53 6932.73 1078.54 6936.73 1073.54 6940.73 1039.53 6944.73 1079.54 6948.73 1092.54 6952.73 1105.54 6955.73 1106.54 6959.73 1035.53 6963.73 988.533 6967.73 1069.54 6971.73 1055.53 6975.73 1108.54 6978.73 1044.53 6982.73 1122.54 6986.73 1075.54 6990.73 1053.53 6994.73 1003.53 6998.73 1023.53 7001.73 1037.53 7005.73 1053.53 7009.73 954.531 7013.73 1036.53 7017.73 988.533 7021.73 957.532 7024.73 1042.53 7028.73 1012.53 7032.73 998.533 7036.73 977.532 7040.73 972.532 7044.73 976.532 7047.73 939.531 7051.73 1015.53 7055.73 1029.53 7059.73 1016.53 7063.73 959.532 7067.73 1018.53 7071.73 1032.53 7074.73 1033.53 7078.73 976.532 7082.73 1008.53 7086.73 1079.54 7090.73 1039.53 7094.73 984.532 7097.73 854.528 7101.73 770.525 7105.73 813.527 7109.73 783.526 7113.73 794.526 7117.73 789.526 7120.73 830.527 7124.73 861.528 7128.73 866.529 7132.73 850.528 7136.73 885.529 7140.73 939.531 7143.73 928.531 7147.73 901.53 7151.73 983.532 7155.73 1093.54 7159.73 1118.54 7163.74 1116.54 7166.74 1122.54 7170.74 1117.54 7174.74 1118.54 7178.74 1102.54 7182.74 1094.54 7186.74 1017.53 7189.74 836.528 7193.74 811.527 7197.74 833.528 7201.74 866.529 7205.74 805.527 7209.74 812.527 7213.74 868.529 7216.74 860.528 7220.74 897.53 7224.74 870.529 7228.74 878.529 7232.74 872.529 7236.74 952.531 7239.74 966.532 7243.74 956.532 7247.74 1110.54 7251.74 1091.54 7255.74 1105.54 7259.74 1117.54 7262.74 1113.54 7266.74 1080.54 7270.74 1063.54 7274.74 1077.54 7278.74 1043.53 7282.74 762.525 7285.74 774.526 7289.74 783.526 7293.74 818.527 7297.74 753.525 7301.74 786.526 7305.74 823.527 7308.74 832.527 7312.74 914.53 7316.74 856.528 7320.74 900.53 7324.74 879.529 7328.74 991.533 7331.74 967.532 7335.74 1004.53 7339.74 1106.54 7343.74 1108.54 7347.74 1115.54 7351.74 1126.54 7355.74 1103.54 7358.74 1109.54 7362.74 1122.54 7366.74 1130.54 7370.74 1093.54 7374.74 901.53 7378.74 902.53 7381.74 975.532 7385.74 973.532 7389.74 886.529 7393.74 939.531 7397.74 950.531 7401.74 1022.53 7404.74 925.531 7408.74 946.531 7412.74 964.532 7416.74 990.533 7420.74 1006.53 7424.74 1054.53 7427.74 1080.54 7431.74 1127.54 7435.74 1139.54 7439.74 1136.54 7443.74 1121.54 7447.74 1132.54 7450.74 1120.54 7454.74 1109.54 7458.74 1102.54 7462.75 1041.53 7466.75 875.529 7470.75 813.527 7473.75 864.529 7477.75 847.528 7481.75 802.526 7485.75 846.528 7489.75 864.529 7493.75 917.53 7496.75 897.53 7500.75 939.531 7504.75 980.532 7508.75 952.531 7512.75 959.532 7516.75 989.533 7520.75 995.533 7523.75 1123.54 7527.75 1133.54 7531.75 1124.54 7535.75 1122.54 7539.75 1114.54 7543.75 1089.54 7546.75 1107.54 7550.75 1082.54 7554.75 1109.54 7558.75 1094.54 7562.75 1074.54 7566.75 1060.53 7569.75 1042.53 7573.75 1079.54 7577.75 1052.53 7581.75 1047.53 7585.75 1078.54 7589.75 1078.54 7592.75 1085.54 7596.75 1099.54 7600.75 1064.54 7604.75 1093.54 7608.75 1111.54 7612.75 1079.54 7615.75 1083.54 7619.75 1042.53 7623.75 1094.54 7627.75 1112.54 7631.75 1129.54 7635.75 1074.54 7638.75 1059.53 7642.75 1052.53 7646.75 1087.54 7650.75 1080.54 7654.75 1032.53 7658.75 1080.54 7662.75 1059.53 7665.75 1072.54 7669.75 1089.54 7673.75 1069.54 7677.75 1080.54 7681.75 1086.54 7685.75 1066.54 7688.75 1081.54 7692.75 1073.54 7696.75 1078.54 7700.75 1108.54 7704.75 1118.54 7708.75 1093.54 7711.75 1102.54 7715.75 1126.54 7719.75 1118.54 7723.75 1112.54 7727.75 1100.54 7731.75 1119.54 7734.75 1075.54 7738.75 1116.54 7742.75 896.53 7746.75 881.529 7750.75 990.533 7754.75 1002.53 7757.75 996.533 7761.75 1034.53 7765.75 1048.53 7769.75 1042.53 7773.75 1100.54 7777.75 1022.53 7780.76 1078.54 7784.76 1060.53 7788.76 1003.53 7792.76 1068.54 7796.76 1012.53 7800.76 1132.54 7804.76 1137.54 7807.76 1125.54 7811.76 1004.53 7815.76 1089.54 7819.76 1064.54 7823.76 1070.54 7827.76 1058.53 7830.76 1036.53 7834.76 794.526 7838.76 723.524 7842.76 847.528 7846.76 813.527 7850.76 1256.5 7853.76 770.525 7857.76 906.53 7861.76 917.53 7865.76 980.532 7869.76 1011.53 7873.76 977.532 7876.76 973.532 7880.76 1012.53 7884.76 1038.53 7888.76 932.531 7892.76 1098.54 7896.76 1123.54 7899.76 1128.54 7903.76 1069.54 7907.76 1067.54 7911.76 1024.53 7915.76 1071.54 7919.76 1032.53 7922.76 1065.54 7926.76 821.527 7930.76 802.526 7934.76 792.526 7938.76 842.528 7942.76 821.527 7945.76 877.529 7949.76 969.532 7953.76 943.531 7957.76 957.532 7961.76 997.533 7965.76 989.533 7969.76 1013.53 7972.76 991.533 7976.76 999.533 7980.76 993.533 7984.76 1127.54 7988.76 1124.54 7992.76 1084.54 7995.76 1093.54 7999.76 1061.54 8003.76 1038.53 8007.76 1001.53 8011.76 956.532 8015.76 939.531 8018.76 764.525 8022.76 737.524 8026.76 811.527 8030.76 782.526 8034.76 821.527 8038.76 784.526 8041.76 797.526 8045.76 900.53 8049.76 879.529 8053.76 981.532 8057.76 969.532 8061.76 993.533 8064.76 879.529 8068.76 886.529 8072.76 891.529 8076.77 1096.54 8080.77 1093.54 8084.77 1080.54 8087.77 1020.53 8091.77 1027.53 8095.77 990.533 8099.77 1014.53 8103.77 996.533 8107.77 952.531 8111.77 783.526 8114.77 835.528 8118.77 805.527 8122.77 891.529 8126.77 822.527 8130.77 795.526 8134.77 829.527 8137.77 787.526 8141.77 782.526 8145.77 834.528 8149.77 852.528 8153.77 935.531 8157.77 875.529 8160.77 865.529 8164.77 881.529 8168.77 1072.54 8172.77 965.532 8176.77 1051.53 8180.77 940.531 8183.77 939.531 8187.77 962.532 8191.77 929.531 8195.77 940.531 8199.77 903.53 8203.77 963.532 8206.77 905.53 8210.77 859.528 8214.77 878.529 8218.77 890.529 8222.77 920.53 8226.77 906.53 8229.77 869.529 8233.77 919.53 8237.77 876.529 8241.77 862.528 8245.77 890.529 8249.77 887.529 8253.77 866.529 8256.77 881.529 8260.77 880.529 8264.77 804.527 8268.77 922.53 8272.5 842.528" stroke="#5B9BD5" stroke-width="6.875" stroke-linecap="round" stroke-linejoin="round" stroke-miterlimit="10" fill="none"/></g><g clip-path="url(#clip6)"><text fill="#595959" font-family="Calibri,Calibri_MSFontService,sans-serif" font-weight="400" font-size="41" transform="matrix(1 0 0 1 5361.86 1271)">0</text></g><g clip-path="url(#clip7)"><text fill="#595959" font-family="Calibri,Calibri_MSFontService,sans-serif" font-weight="400" font-size="41" transform="matrix(1 0 0 1 5320.06 1211)">200</text></g><g clip-path="url(#clip8)"><text fill="#595959" font-family="Calibri,Calibri_MSFontService,sans-serif" font-weight="400" font-size="41" transform="matrix(1 0 0 1 5320.06 1151)">400</text></g><g clip-path="url(#clip9)"><text fill="#595959" font-family="Calibri,Calibri_MSFontService,sans-serif" font-weight="400" font-size="41" transform="matrix(1 0 0 1 5320.06 1091)">600</text></g><g clip-path="url(#clip10)"><text fill="#595959" font-family="Calibri,Calibri_MSFontService,sans-serif" font-weight="400" font-size="41" transform="matrix(1 0 0 1 5320.06 1032)">800</text></g><g clip-path="url(#clip11)"><text fill="#595959" font-family="Calibri,Calibri_MSFontService,sans-serif" font-weight="400" font-size="41" transform="matrix(1 0 0 1 5299.16 972)">1000</text></g><g clip-path="url(#clip12)"><text fill="#595959" font-family="Calibri,Calibri_MSFontService,sans-serif" font-weight="400" font-size="41" transform="matrix(1 0 0 1 5299.16 912)">1200</text></g><g clip-path="url(#clip13)"><text fill="#595959" font-family="Calibri,Calibri_MSFontService,sans-serif" font-weight="400" font-size="41" transform="matrix(1 0 0 1 5299.16 852)">1400</text></g><g clip-path="url(#clip14)"><text fill="#595959" font-family="Calibri,Calibri_MSFontService,sans-serif" font-weight="400" font-size="41" transform="matrix(1 0 0 1 5299.16 792)">1600</text></g><g clip-path="url(#clip15)"><text fill="#595959" font-family="Calibri,Calibri_MSFontService,sans-serif" font-weight="400" font-size="41" transform="matrix(1 0 0 1 5299.16 732)">1800</text></g><g clip-path="url(#clip16)"><text fill="#595959" font-family="Calibri,Calibri_MSFontService,sans-serif" font-weight="400" font-size="41" transform="matrix(1 0 0 1 5299.16 672)">2000</text></g><g clip-path="url(#clip17)"><text fill="#595959" font-family="Calibri,Calibri_MSFontService,sans-serif" font-weight="400" font-size="41" text-decoration="underline" transform="matrix(1 0 0 1 5331.95 1325)">1/12/2016</text></g><g clip-path="url(#clip18)"><text fill="#595959" font-family="Calibri,Calibri_MSFontService,sans-serif" font-weight="400" font-size="41" text-decoration="underline" transform="matrix(1 0 0 1 5792.48 1325)">6/12/2016</text></g><g clip-path="url(#clip19)"><text fill="#595959" font-family="Calibri,Calibri_MSFontService,sans-serif" font-weight="400" font-size="41" text-decoration="underline" transform="matrix(1 0 0 1 6242.56 1325)">11/12/2016</text></g><g clip-path="url(#clip20)"><text fill="#595959" font-family="Calibri,Calibri_MSFontService,sans-serif" font-weight="400" font-size="41" text-decoration="underline" transform="matrix(1 0 0 1 6703.09 1325)">16/12/2016</text></g><g clip-path="url(#clip21)"><text fill="#595959" font-family="Calibri,Calibri_MSFontService,sans-serif" font-weight="400" font-size="41" text-decoration="underline" transform="matrix(1 0 0 1 7163.61 1325)">21/12/2016</text></g><g clip-path="url(#clip22)"><text fill="#595959" font-family="Calibri,Calibri_MSFontService,sans-serif" font-weight="400" font-size="41" text-decoration="underline" transform="matrix(1 0 0 1 7624.14 1325)">26/12/2016</text></g><g clip-path="url(#clip23)"><text fill="#595959" font-family="Calibri,Calibri_MSFontService,sans-serif" font-weight="400" font-size="41" text-decoration="underline" transform="matrix(1 0 0 1 8084.67 1325)">31/12/2016</text></g><g clip-path="url(#clip24)"><text fill="#595959" font-family="Calibri,Calibri_MSFontService,sans-serif" font-weight="400" font-size="46" transform="matrix(6.12323e-17 -1 1 6.12323e-17 5273.47 1188)">Potencia aparente (KVA)</text></g><g clip-path="url(#clip25)"><text fill="#595959" font-family="Calibri,Calibri_MSFontService,sans-serif" font-weight="400" font-size="46" transform="matrix(1 0 0 1 6747.97 1394)">Fecha</text></g><g clip-path="url(#clip26)"><text fill="#595959" font-family="Calibri,Calibri_MSFontService,sans-serif" font-weight="400" font-size="64" transform="matrix(1 0 0 1 6022.32 586)">Potencia aparente consumida en Diciembre por Zion S.A</text></g><rect x="5172.5" y="491.5" width="3162" height="972" stroke="#D9D9D9" stroke-width="3.4375" stroke-linejoin="round" stroke-miterlimit="10" fill="none"/></g></svg>